<?xml version="1.0" standalone="no"?>
<!DOCTYPE svg PUBLIC "-//W3C//DTD SVG 20010904//EN"
 "http://www.w3.org/TR/2001/REC-SVG-20010904/DTD/svg10.dtd">
<svg version="1.0" xmlns="http://www.w3.org/2000/svg"
 width="1413.000000pt" height="772.000000pt" viewBox="0 0 1413.000000 772.000000"
 preserveAspectRatio="xMidYMid meet">

<g transform="translate(0.000000,772.000000) scale(0.100000,-0.100000)"
fill="#000000" stroke="none">
<path d="M0 500 l0 -500 475 0 c267 1 475 5 475 10 0 5 -14 8 -30 8 -17 -1
-34 3 -38 7 -4 4 3 5 16 2 14 -3 22 -1 22 8 0 14 -37 31 -55 26 -5 -1 -4 3 3
10 17 18 15 29 -6 29 -30 0 -55 35 -48 67 5 23 4 25 -4 11 -13 -22 -30 -23
-30 -4 0 23 -47 73 -75 80 -22 6 -30 22 -26 49 0 4 -9 7 -21 7 -21 0 -21 0 -2
21 19 22 19 22 -9 15 -25 -6 -28 -3 -33 24 -4 16 -13 30 -20 30 -8 0 -16 11
-20 25 -5 19 -12 25 -28 23 -15 -2 -20 2 -18 15 3 19 -9 22 -25 6 -8 -8 -11
-6 -10 7 1 11 -7 20 -23 25 -14 4 -19 7 -11 8 10 1 11 4 2 15 -9 11 -9 15 1
20 7 3 4 5 -7 3 -16 -3 -21 2 -23 21 -1 14 -20 41 -46 66 -24 22 -46 49 -49
58 -4 11 -12 15 -22 12 -9 -4 -15 0 -16 10 -1 9 -3 21 -4 26 -1 6 -3 15 -4 21
0 6 -8 3 -17 -5 -14 -14 -34 -14 -34 0 0 3 5 2 10 -1 5 -3 10 -1 10 5 0 6 -6
13 -14 16 -8 3 -12 13 -9 25 5 17 -6 23 -37 21 -3 0 -5 14 -5 31 0 24 -5 32
-20 35 -16 2 -17 1 -5 -7 9 -7 10 -11 3 -11 -14 0 -27 19 -28 40 0 10 -8 14
-22 13 -19 -2 -23 2 -23 25 -1 25 -2 25 -14 10 -7 -10 -17 -18 -22 -18 -4 0
-3 5 4 12 18 18 15 37 -5 36 -10 -1 -28 2 -40 6 l-23 7 0 -501z m330 185 c0
-8 -4 -15 -10 -15 -5 0 -7 7 -4 15 4 8 8 15 10 15 2 0 4 -7 4 -15z m87 -91
c-3 -3 -12 -4 -19 -1 -8 3 -5 6 6 6 11 1 17 -2 13 -5z"/>
<path d="M158 933 c7 -3 16 -2 19 1 4 3 -2 6 -13 5 -11 0 -14 -3 -6 -6z"/>
<path d="M336 777 c3 -10 9 -15 12 -12 3 3 0 11 -7 18 -10 9 -11 8 -5 -6z"/>
<path d="M780 210 c0 -5 5 -10 10 -10 6 0 10 5 10 10 0 6 -4 10 -10 10 -5 0
-10 -4 -10 -10z"/>
<path d="M842 134 c-7 -8 -8 -14 -3 -14 10 0 25 19 20 25 -2 1 -10 -3 -17 -11z"/>
</g>
</svg>
